<svg height="14" viewBox="0 0 14 14" width="14" xmlns="http://www.w3.org/2000/svg"><rect fill="none" height="14" rx="2" width="14"/><path d="m-5356.5 55a.5.5 0 0 1 -.5-.5.5.5 0 0 1 .5-.5h5a.5.5 0 0 1 .5.5.5.5 0 0 1 -.5.5zm-2.5-.5a.5.5 0 0 1 .5-.5.5.5 0 0 1 .5.5.5.5 0 0 1 -.5.5.5.5 0 0 1 -.5-.5zm2.5-2.5a.5.5 0 0 1 -.5-.5.5.5 0 0 1 .5-.5h5a.5.5 0 0 1 .5.5.5.5 0 0 1 -.5.5zm-2.5-.5a.5.5 0 0 1 .5-.5.5.5 0 0 1 .5.5.5.5 0 0 1 -.5.5.5.5 0 0 1 -.5-.5zm2.5-2.5a.5.5 0 0 1 -.5-.5.5.5 0 0 1 .5-.5h5a.5.5 0 0 1 .5.5.5.5 0 0 1 -.5.5zm-2.5-.5a.5.5 0 0 1 .5-.5.5.5 0 0 1 .5.5.5.5 0 0 1 -.5.5.5.5 0 0 1 -.5-.5z" fill="#fff" transform="translate(5362 -44)"/></svg>